# xmcd
#
# Track frame offsets:
#	150
#	18921
#	47722
#	66283
#	85128
#	106139
#	124254
#	141310
#	165291
#	183999
#	205458
#	227123
#	253415
#	278114
#	302482
#	321906
#
# Disc length: 4585 seconds
#
# Revision: 0
# Processed by: cddbd v1.5PL3 Copyright (c) Steve Scherf et al.
# Submitted via: dBpowerAMP V4.0
#
DISCID=e211e710
DTITLE=Hoang Chau - Khi con tim doi thay - HoangChau
DYEAR=2004
DGENRE=Vietnamese POP
TTITLE0=Trai tim tat nguyen - HoangChau
TTITLE1=Vai phu - HoangChau
TTITLE2=Hay yeu em di - HoangChau
TTITLE3=Tha rang nhu the - HoangChau and KhanhDang
TTITLE4=Tinh mai xa - HoangChau
TTITLE5=Mong doi gian la vo nghia - HoangChau
TTITLE6=Khoc mot tinh yeu - HoangChau
TTITLE7=Net son buon - HoangChau
TTITLE8=Goodbye me say - HoangChau
TTITLE9=Cuoc tinh da mat - HoangChau
TTITLE10=Yeu ngu ngo - HoangChau
TTITLE11=Tra loi anh tinh dau - HoangChau
TTITLE12=Noi nho - HoangChau and KhanhDang
TTITLE13=Hat voi dong song - HoangChau
TTITLE14=Khi con tim doi thay - HoangChau
TTITLE15=Mai yeu - HoangChau
EXTD=Khi con tim doi thay - HoangChau
EXTT0=
EXTT1=
EXTT2=
EXTT3=
EXTT4=
EXTT5=
EXTT6=
EXTT7=
EXTT8=
EXTT9=
EXTT10=
EXTT11=
EXTT12=
EXTT13=
EXTT14=
EXTT15=
PLAYORDER=
